<?xml version="1.0" standalone="no"?>
<!DOCTYPE svg PUBLIC "-//W3C//DTD SVG 20010904//EN"
 "http://www.w3.org/TR/2001/REC-SVG-20010904/DTD/svg10.dtd">
<svg version="1.0" xmlns="http://www.w3.org/2000/svg"
 width="351.000000pt" height="351.000000pt" viewBox="0 0 351.000000 351.000000"
 preserveAspectRatio="xMidYMid meet">
<metadata>
Created by potrace 1.11, written by Peter Selinger 2001-2013
</metadata>
<g transform="translate(0.000000,351.000000) scale(0.100000,-0.100000)"
fill="#000000" stroke="none">
<path d="M1692 3060 c-12 -12 -22 -31 -22 -43 0 -14 -34 -56 -97 -120 l-96
-99 114 -114 114 -114 103 0 c89 0 108 -3 129 -20 33 -25 54 -25 81 0 27 25
29 71 4 93 -23 21 -75 22 -92 2 -9 -11 -35 -15 -109 -15 l-96 0 -83 83 -82 82
78 78 c58 57 84 77 104 77 29 0 58 32 58 63 0 23 -44 67 -68 67 -10 0 -28 -9
-40 -20z m64 -59 c-4 -6 -16 -11 -27 -11 -21 0 -27 35 -6 43 16 6 41 -18 33
-32z m244 -400 c0 -22 -21 -33 -40 -21 -18 11 -4 40 20 40 13 0 20 -7 20 -19z"/>
<path d="M2022 3060 c-12 -12 -22 -32 -22 -45 0 -33 -72 -101 -116 -110 -75
-14 -70 -125 5 -125 36 0 59 18 66 52 9 42 81 118 112 118 28 0 63 37 63 66 0
25 -43 64 -69 64 -10 0 -27 -9 -39 -20z m58 -35 c13 -16 6 -35 -15 -35 -18 0
-28 17 -21 35 7 19 20 19 36 0z m-171 -164 c19 -12 6 -41 -19 -41 -13 0 -20 7
-20 18 0 31 14 39 39 23z"/>
<path d="M1212 2907 c-25 -27 -29 -69 -7 -87 11 -9 15 -33 15 -88 l0 -76 178
-178 178 -178 141 0 c113 0 143 -3 153 -15 20 -24 66 -18 89 11 12 15 21 32
21 39 0 7 -9 24 -21 39 -25 32 -68 35 -94 6 -16 -18 -31 -20 -144 -20 l-125 0
-158 158 -158 158 0 58 c0 43 5 64 20 83 27 34 25 59 -5 88 -30 31 -55 32 -83
2z m63 -47 c0 -22 -39 -19 -43 3 -3 15 1 18 20 15 12 -2 23 -10 23 -18z m652
-516 c8 -21 -13 -42 -28 -27 -13 13 -5 43 11 43 6 0 13 -7 17 -16z"/>
<path d="M2204 2904 c-28 -27 -27 -63 2 -95 11 -13 14 -64 14 -270 l0 -255
-94 -92 -93 -92 -194 0 -194 0 -177 -177 -178 -178 0 -401 c0 -350 -2 -403
-15 -414 -11 -9 -15 -26 -13 -54 2 -32 8 -43 28 -53 35 -17 68 -6 85 27 13 25
12 31 -5 66 -19 36 -20 61 -20 424 l0 385 158 158 157 157 195 0 195 0 113
111 112 110 0 267 c0 220 3 272 15 288 21 28 18 70 -7 94 -29 27 -54 25 -84
-6z m66 -44 c0 -13 -7 -20 -19 -20 -22 0 -35 15 -26 30 12 19 45 11 45 -10z
m-930 -1979 c0 -24 -25 -34 -40 -16 -15 18 -5 35 21 35 12 0 19 -7 19 -19z"/>
<path d="M970 2793 c-20 -7 -50 -44 -50 -63 0 -8 9 -26 20 -40 17 -22 20 -41
20 -163 l0 -139 65 -67 65 -68 0 -289 c-1 -238 -3 -292 -15 -308 -20 -26 -19
-71 1 -90 20 -20 78 -21 94 0 18 21 17 70 -3 92 -15 16 -17 53 -17 321 l0 303
-65 67 -65 68 0 125 c0 99 3 128 15 138 18 15 20 84 3 98 -18 14 -50 21 -68
15z m40 -63 c0 -13 -7 -20 -20 -20 -13 0 -20 7 -20 20 0 13 7 20 20 20 13 0
20 -7 20 -20z m136 -1129 c-4 -6 -16 -11 -27 -11 -21 0 -27 35 -6 43 16 6 41
-18 33 -32z"/>
<path d="M2611 2729 c-11 -12 -21 -33 -21 -46 0 -14 -20 -44 -55 -79 l-55 -57
0 -130 0 -129 -81 -83 c-60 -62 -89 -85 -115 -89 -34 -7 -64 -38 -64 -66 0 -9
9 -26 20 -38 40 -43 110 -18 110 39 0 17 26 50 90 114 l90 90 0 130 0 131 53
52 c32 31 61 52 75 52 29 0 62 34 62 63 0 33 -20 56 -56 63 -25 5 -36 1 -53
-17z m67 -42 c4 -20 -25 -34 -40 -19 -15 15 -1 44 19 40 10 -2 19 -11 21 -21z
m-370 -635 c3 -16 -2 -22 -16 -22 -24 0 -35 23 -19 39 16 16 31 8 35 -17z"/>
<path d="M686 2579 c-31 -25 -33 -57 -6 -92 12 -15 20 -40 20 -64 0 -34 7 -46
55 -93 31 -31 55 -63 55 -75 0 -38 28 -65 67 -65 41 0 62 21 63 62 0 30 -40
68 -73 68 -12 0 -41 19 -64 42 -35 34 -43 49 -43 79 0 20 7 42 15 49 24 20 18
66 -11 89 -15 12 -32 21 -39 21 -7 0 -24 -9 -39 -21z m62 -42 c4 -20 -25 -34
-39 -20 -14 14 1 45 20 41 9 -2 17 -11 19 -21z m152 -286 c0 -24 -25 -34 -40
-16 -15 18 -5 35 21 35 12 0 19 -7 19 -19z"/>
<path d="M2862 2417 c-6 -7 -13 -26 -16 -42 -4 -22 -68 -92 -243 -267 l-238
-238 -310 0 -310 0 -138 -138 -137 -137 0 -533 c0 -461 -2 -535 -15 -548 -21
-22 -19 -70 5 -94 24 -24 48 -25 78 -4 26 18 30 74 7 98 -13 13 -15 86 -15
538 l0 523 117 117 118 118 314 0 315 0 246 245 c135 135 251 245 257 245 25
0 61 23 72 47 9 19 8 30 -4 53 -13 25 -21 30 -54 30 -21 0 -43 -6 -49 -13z
m68 -48 c0 -12 -7 -19 -19 -19 -26 0 -36 17 -21 35 15 18 40 8 40 -16z m-1404
-1890 c8 -14 -21 -43 -35 -35 -19 12 -13 46 8 46 11 0 23 -5 27 -11z"/>
<path d="M1262 2404 c-47 -33 -18 -114 41 -114 34 0 57 -34 57 -85 0 -51 -20
-81 -61 -89 -45 -9 -59 -23 -59 -61 0 -63 70 -88 109 -39 12 15 21 37 21 49 0
12 11 32 25 45 22 21 25 32 25 91 0 57 -4 72 -25 97 -14 17 -25 40 -25 51 0
27 -42 71 -67 71 -10 0 -29 -7 -41 -16z m56 -52 c4 -25 -19 -30 -37 -9 -8 10
-7 17 1 25 17 17 32 10 36 -16z m2 -297 c0 -18 -5 -25 -19 -25 -23 0 -34 23
-18 39 19 19 37 12 37 -14z"/>
<path d="M602 2274 c-46 -32 -18 -114 39 -114 18 0 55 -31 137 -113 l112 -112
0 -200 0 -200 105 -105 105 -105 0 -361 c0 -309 -2 -363 -15 -374 -22 -18 -18
-67 6 -91 27 -27 66 -21 92 13 18 24 18 30 7 57 -7 17 -16 31 -21 31 -5 0 -9
165 -9 373 l0 372 -105 105 -105 105 0 200 0 200 -120 120 c-84 84 -120 127
-120 143 0 27 -42 72 -67 72 -10 0 -29 -7 -41 -16z m56 -52 c2 -14 -2 -22 -12
-22 -19 0 -29 17 -22 36 8 22 30 12 34 -14z m498 -1663 c10 -17 -23 -46 -37
-32 -7 7 -9 19 -6 27 7 18 33 21 43 5z"/>
<path d="M3050 2180 c-25 -25 -25 -47 0 -85 16 -24 20 -47 20 -119 l0 -88 -82
-84 c-62 -64 -88 -84 -108 -84 -35 0 -60 -29 -60 -68 0 -33 29 -62 63 -62 25
0 67 45 67 71 0 15 31 54 90 115 l90 91 0 104 c1 76 5 109 15 123 50 66 -37
144 -95 86z m65 -45 c0 -11 -7 -21 -16 -23 -18 -3 -33 23 -23 39 10 17 39 5
39 -16z m-215 -474 c0 -26 -17 -36 -36 -21 -11 10 -12 16 -3 26 17 20 39 17
39 -5z"/>
<path d="M2816 2009 c-16 -13 -26 -30 -26 -47 0 -22 -31 -58 -148 -175 l-147
-147 -258 0 c-246 0 -259 1 -286 21 -31 22 -59 20 -86 -7 -21 -21 -19 -67 3
-87 23 -21 75 -22 92 -2 11 13 55 15 284 15 l271 0 154 154 c120 121 161 156
188 161 67 12 82 89 23 120 -36 19 -32 19 -64 -6z m60 -40 c8 -14 -21 -43 -35
-35 -6 4 -11 16 -11 27 0 21 34 27 46 8z m-941 -359 c0 -8 -10 -16 -22 -18
-18 -3 -23 2 -23 18 0 16 5 21 23 18 12 -2 22 -10 22 -18z"/>
<path d="M602 1944 c-45 -31 -19 -114 36 -114 39 0 62 -34 62 -94 0 -38 -6
-60 -20 -79 -39 -50 -15 -107 47 -107 16 0 37 8 46 18 21 23 22 65 2 82 -11 9
-15 33 -15 89 0 70 -3 80 -25 101 -14 13 -25 34 -25 47 0 28 -41 73 -67 73
-10 0 -29 -7 -41 -16z m58 -49 c0 -18 -5 -25 -20 -25 -20 0 -28 28 -13 43 15
16 33 6 33 -18z m86 -294 c-9 -14 -33 -14 -41 -1 -4 6 -1 18 6 26 11 13 14 13
27 0 8 -8 11 -19 8 -25z"/>
</g>
</svg>
