<?xml version="1.0" encoding="UTF-8" standalone="no"?>
<svg
   xmlns:dc="http://purl.org/dc/elements/1.1/"
   xmlns:cc="http://creativecommons.org/ns#"
   xmlns:rdf="http://www.w3.org/1999/02/22-rdf-syntax-ns#"
   xmlns:svg="http://www.w3.org/2000/svg"
   xmlns="http://www.w3.org/2000/svg"
   id="svg40"
   xml:space="preserve"
   viewBox="0 0 1024 768"
   y="0px"
   x="0px"
   version="1.1"><metadata
     id="metadata46"><rdf:RDF><cc:Work
         rdf:about=""><dc:format>image/svg+xml</dc:format><dc:type
           rdf:resource="http://purl.org/dc/dcmitype/StillImage" /></cc:Work></rdf:RDF></metadata><defs
     id="defs44" /><style
     id="style2">
#logo-fade{
opacity: 0;
animation: fadeIn 4s ease-in forwards;
}

@keyframes fadeIn { 0% { opacity:0; } 50% { opacity:0; } 100% { opacity:1; } }
@keyframes fadeOut { from { opacity:1; } to { opacity:0; } }

#outline{
opacity: 1;
stroke-dasharray: 2000;
stroke-dashoffset: 2000;
animation: dash 4s ease-in-out forwards;
}

@keyframes dash {
  0% {
    opacity: 1;
    stroke-dashoffset: 2000;
  }
  50% {
    opacity: 1;
    stroke-dashoffset: 1000;
  }
  100% {
    opacity: 0;
    stroke-dashoffset: 0;
  }
}
</style><path
     stroke-width="4"
     stroke="#27187E"
     fill="none"
     d="m419.37361 297.71423l19.11859-0.00671v80.68292h-18.95892l-34.22009-46.70813v46.72492h-19.11019v-80.693h17.6697l35.50091 48.08637zm131.51068 40.34821a41.75252 41.75252 0 1 1 -41.7113 -41.79358 41.73475 41.73475 0 0 1 41.7113 41.79358zm-19.20257-0.08118a22.51117 22.51117 0 1 0 -22.51038 22.512 22.51882 22.51882 0 0 0 22.51038 -22.512zm94.09692 40.41931l-29.12579-80.67957h-21.70355l31.22338 80.67956zm115.35-32.805c0 10.81183-6.21234 17.02435-16.94367 17.02435-10.81219 0-17.105-6.2127-17.105-17.02435v-47.925h-19.36397v48.48981c0 19.84967 11.86078 33.64532 36.469 33.64532 24.60834 0 36.38837-13.715 36.38837-33.805v-48.41086h-19.44457zm115.87125 7.59443v-0.72711c-0.72772-18.55725-16.78363-22.83289-29.9342-25.97943-7.74561-1.85553-14.44238-3.46991-14.44238-7.01929 0-3.8728 3.55029-6.13208 9.52-6.13208a33.09825 33.09825 0 0 1 22.18762 8.31012l1.533 1.45264 10.81164-14.2002c-8.95507-8.63354-20.09033-12.50628-32.91925-12.50628-18.637 0-30.17419 10.7304-30.57794 23.88177v2.1781c0.72608 18.39667 16.37927 22.51166 29.20813 25.5777 8.22992 1.93524 15.32868 3.63062 15.32868 7.90643 0 3.46991-3.71112 7.02014-12.10175 7.02014a33.38778 33.38778 0 0 1 -24.28522 -10.32739l-1.6134-1.69549-10.32831 14.5227c9.03748 9.11774 19.84839 14.44238 35.33954 14.44238 21.784 0 32.27393-11.133 32.27393-25.89874zm-471.675 36.36908h-19.12189v80.693h51.31341v-17.02436l-32.19146-0.01013zm92.25323-0.00171-31.22339 80.67957h21.70362l20.33538-57.8465 10.16858 29.03839 10.08454 28.80811h21.6145l-31.14435-80.67957zm148.8327 58.86676-0.01025-0.00341c0 12.10345-8.14929 21.7843-23.47845 21.7843h-43.80046v-80.76026h42.51971c15.33033 0 23.23645 9.8432 23.23645 20.57416 0 10.16571-6.37341 16.94367-13.95813 18.55719 8.55323 1.37134 15.49115 9.68146 15.49115 19.84802zm-48.17734-28.56613h19.606c4.517 0 7.50281-2.66235 7.50281-6.7771 0-4.11487-2.98578-6.85852-7.50281-6.85852h-19.606zm28.64178 26.14075c0-4.51782-3.30737-7.50348-8.471-7.50348h-20.17066v14.92658h20.17071c3.22687 0.00003 8.47095-0.96836 8.47095-7.42307zm116.08447-1.69946c-0.72772-18.55719-16.78363-22.83283-29.9342-25.97937-7.74561-1.85559-14.44238-3.47-14.44238-7.01935 0-3.8728 3.55029-6.13208 9.52-6.13208a33.098 33.098 0 0 1 22.18762 8.31018l1.533 1.45257 10.81164-14.20019c-8.95507-8.63348-20.09033-12.50629-32.91925-12.50629-18.637 0-30.17419 10.73041-30.57794 23.88184v2.178c0.72608 18.39667 16.37927 22.51172 29.20813 25.5777 8.22992 1.93524 15.32868 3.63061 15.32868 7.90643 0 3.46991-3.71113 7.02014-12.10175 7.02014a33.38778 33.38778 0 0 1 -24.28522 -10.32739l-1.6134-1.6955-10.32831 14.52271c9.03748 9.11773 19.84839 14.44238 35.33954 14.44238 21.78393 0 32.27393-11.133 32.27393-25.89874l-0.00013-0.806zm-85.80237-146.57829-17.34536 48.49311h20.33716l18.70678-48.4931zm-148.79718 172.51594l12.70649-19.83289h-25.51722zm-219.4648-102.04894a5.80141 5.80141 0 1 0 6.95573 -4.35052 5.80208 5.80208 0 0 0 -6.95573 4.35052zm-4.42838 45.03955a9.052 9.052 0 1 0 6.78871 10.85419 9.05119 9.05119 0 0 0 -6.78871 -10.85419zm-20.38119-114.387a7.58193 7.58193 0 1 0 -5.68452 -9.09075 7.5826 7.5826 0 0 0 5.68452 9.09072zm-52.93869 78.95887a5.06939 5.06939 0 1 0 6.07771 -3.80161 5.06764 5.06764 0 0 0 -6.07771 3.80158zm129.265 4.22975a5.06943 5.06943 0 1 0 3.802 6.07858 5.06849 5.06849 0 0 0 -3.80205 -6.07861zm5.347-52.88127a6.50989 6.50989 0 0 0 -5.64856 1.37429l-7.48695-4.28875a11.60676 11.60676 0 0 0 0.37348 -1.10072 11.75825 11.75825 0 0 0 -8.81615 -14.097 11.63077 11.63077 0 0 0 -5.74483 0.17152l-3.50164-7.01445a4.82711 4.82711 0 1 0 -8.74192 -2.83689l-9.25227 4.81722a14.28016 14.28016 0 1 0 -20.86486 19.42054l-8.02861 11.63869a27.30287 27.30287 0 0 0 -15.24182 -3.59951l-1.21554-10.19886a10.69415 10.69415 0 1 0 -14.0286 -8.4276l-15.50985 5.99462a7.13777 7.13777 0 1 0 1.62845 4.22047l15.519-5.99854a9.89181 9.89181 0 0 0 7.89638 4.72486l1.23062 10.32268a27.44579 27.44579 0 0 0 -12.67271 46.91665l-9.584 12.18731a12.1 12.1 0 0 0 -13.79779 1.52581l-9.78116-7.97409a7.16084 7.16084 0 0 0 0.3468 -1.02329 7.39078 7.39078 0 0 0 -3.81133 -8.214l1.77112-10.4217a13.98987 13.98987 0 1 0 -4.45157 -0.80582l-1.77808 10.46012a7.39859 7.39859 0 1 0 5.08254 13.52058l9.77421 7.96945a12.28408 12.28408 0 0 0 8.08312 18.09234c0.21921 0.05046 0.435 0.04437 0.65184 0.0825l0.15658 16.12289a11.73306 11.73306 0 0 0 -5.64971 20.12631l-6.45351 13.29049a9.02683 9.02683 0 1 0 4.6244 1.89958l5.666-12.8003a11.63284 11.63284 0 0 0 1.53334 0.52 11.80258 11.80258 0 0 0 5.30176 -23.00206c-0.167-0.03857-0.334-0.03248-0.50106-0.06336l-0.15426-16.10491a12.40907 12.40907 0 0 0 6.95224 -20.41817l9.57587-12.17846a27.35233 27.35233 0 0 0 31.61452 -0.92543l6.44422 6.57181a9.29087 9.29087 0 0 0 -1.03576 8.01976l-13.87086 8.07674a10.01519 10.01519 0 1 0 2.23623 3.89512l13.87434-8.13284a9.70162 9.70162 0 0 0 16.4678 -4.5419 9.80327 9.80327 0 0 0 0.23893 -2.07414l8.85443-2.019a9.05756 9.05756 0 1 0 -1.0462 -4.39792l-8.84747 2.017a9.62866 9.62866 0 0 0 -13.66092 -4.02692l-6.27721-6.40131a27.32106 27.32106 0 0 0 6.41523 -27.00781l11.31335-4.50855a6.87661 6.87661 0 0 0 10.17668 0.32809l6.83742 3.25314c-0.16934 0.52035-0.32592 1.04881-0.45119 1.59279a18.10022 18.10022 0 1 0 2.40209 -5.67277l-6.8583-3.26285a6.92028 6.92028 0 1 0 -13.77227 -0.44394l-11.30291 4.50478a27.58841 27.58841 0 0 0 -7.20742 -9.003l8.02165-11.62782a14.31278 14.31278 0 0 0 19.50433 -18.13917l9.00406-4.68876a4.73674 4.73674 0 0 0 2.60274 0.85293l3.50164 7.01213a11.70932 11.70932 0 1 0 15.99342 16.93218l7.48463 4.28688a6.52632 6.52632 0 1 0 7.89174 -5.29958z"
     id="outline" /><g
     style="opacity:0"
     id="logo-fade"><path
       style="fill:#27187e"
       id="path5"
       d="m 438.49221,297.70754 v 80.68293 H 419.5333 l -34.22013,-46.70818 v 46.72495 H 366.203 v -80.693 h 17.66977 l 35.50091,48.08641 v -48.08639 z" /><path
       style="fill:#27187e"
       id="path7"
       d="m 550.8843,338.06247 a 41.75252,41.75252 0 1 1 -41.7113,-41.79364 41.73476,41.73476 0 0 1 41.7113,41.79364 z m -19.2026,-0.0812 a 22.51118,22.51118 0 1 0 -22.51035,22.512 22.51885,22.51885 0 0 0 22.51035,-22.512 z" /><path
       style="fill:#27187e"
       id="path9"
       d="M 606.17266,378.40057 574.94929,297.721 h 21.70357 l 29.1258,80.67957 z" /><path
       style="fill:#27187e"
       id="path11"
       d="m 741.12879,297.58987 h 19.44459 v 48.41079 c 0,20.09006 -11.78005,33.805 -36.38837,33.805 -24.60822,0 -36.469,-13.79565 -36.469,-33.64535 V 297.67055 H 707.08 v 47.92505 c 0,10.8116 6.29288,17.02436 17.105,17.02436 10.73133,0 16.94368,-6.21256 16.94368,-17.02436 z" /><path
       style="fill:#27187e"
       id="path13"
       d="m 857,353.996 c 0,14.76575 -10.48994,25.89874 -32.27389,25.89874 -15.49117,0 -26.3021,-5.32463 -35.33954,-14.44239 l 10.32826,-14.52272 1.61346,1.69553 a 33.38785,33.38785 0 0 0 24.28518,10.3274 c 8.39064,0 12.10176,-3.55027 12.10176,-7.02016 0,-4.27585 -7.09879,-5.97122 -15.32868,-7.90644 -12.82888,-3.066 -28.482,-7.181 -29.20813,-25.5777 v -2.17808 c 0.40377,-13.15141 11.94091,-23.88182 30.57795,-23.88182 12.82889,0 23.96419,3.8728 32.91926,12.50631 l -10.81163,14.20017 -1.533,-1.45261 a 33.09818,33.09818 0 0 0 -22.18762,-8.31016 c -5.96973,0 -9.52,2.25928 -9.52,6.13208 0,3.54939 6.69676,5.16377 14.44235,7.01933 13.15059,3.14654 29.20649,7.42219 29.93423,25.97942 v 0.7271 z" /><path
       style="fill:#27187e"
       id="path15"
       d="M 417.51637,453.22774 V 470.2521 H 366.203 v -80.693 h 19.122 v 63.65857 z" /><path
       style="fill:#27187e"
       id="path17"
       d="M 530.26137,470.237 499.117,389.55739 H 477.57812 L 446.35475,470.237 h 21.70359 l 20.33544,-57.84652 10.16857,29.0384 10.08453,28.80812 z" /><path
       style="fill:#27187e"
       id="path19"
       d="m 626.40058,448.42075 c 0,12.10346 -8.14926,21.78426 -23.47845,21.78426 h -43.80045 v -80.76023 h 42.51968 c 15.33031,0 23.23645,9.8432 23.23645,20.57411 0,10.16572 -6.37341,16.94368 -13.95814,18.55724 8.55323,1.37135 15.49117,9.68147 15.49117,19.848 z M 578.23349,419.858 h 19.606 c 4.517,0 7.50277,-2.66234 7.50277,-6.77713 0,-4.11479 -2.98574,-6.85848 -7.50277,-6.85848 h -19.606 z m 28.64176,26.14079 c 0,-4.51785 -3.30735,-7.50353 -8.471,-7.50353 h -20.17066 v 14.92659 h 20.17069 c 3.22692,3e-5 8.47097,-0.96837 8.47097,-7.42303 z" /><path
       style="fill:#27187e"
       id="path21"
       d="m 722.95984,445.83243 c 0,14.76574 -10.49,25.89874 -32.27389,25.89874 -15.49117,0 -26.30211,-5.32463 -35.33955,-14.44239 l 10.32827,-14.52272 1.61346,1.69552 a 33.38779,33.38779 0 0 0 24.28518,10.3274 c 8.39064,0 12.10176,-3.55026 12.10176,-7.02015 0,-4.27585 -7.09879,-5.97123 -15.32868,-7.90644 -12.82888,-3.066 -28.482,-7.181 -29.20813,-25.5777 v -2.17809 c 0.40377,-13.15141 11.9409,-23.88181 30.578,-23.88181 12.82888,0 23.96419,3.87279 32.91925,12.5063 l -10.81165,14.20019 -1.533,-1.4526 a 33.09819,33.09819 0 0 0 -22.18762,-8.31017 c -5.96973,0 -9.52,2.25929 -9.52,6.13208 0,3.54939 6.69676,5.16378 14.44234,7.01933 13.15059,3.14655 29.2065,7.42219 29.93423,25.97943 v 0.72712 z" /><path
       style="fill:#2196f3"
       id="path23"
       d="M 640.14911,346.21412 H 619.812 L 637.15737,297.721 h 21.69855 z" /><path
       style="fill:#2196f3"
       id="path25"
       d="m 501.06666,450.40406 -12.7065,19.8329 -12.81071,-19.8329 z" /><path
       style="fill:#2196f3"
       id="path27"
       d="m 268.89538,368.188 a 5.80141,5.80141 0 1 0 6.95573,-4.35052 5.80208,5.80208 0 0 0 -6.95573,4.35052 z" /><path
       style="fill:#2196f3"
       id="path29"
       d="m 264.467,413.22755 a 9.052,9.052 0 1 0 6.78871,10.85419 9.05119,9.05119 0 0 0 -6.78871,-10.85419 z" /><path
       style="fill:#2196f3"
       id="path31"
       d="m 244.08581,298.84052 a 7.58193,7.58193 0 1 0 -5.68452,-9.09075 7.5826,7.5826 0 0 0 5.68452,9.09075 z" /><path
       style="fill:#2196f3"
       id="path33"
       d="m 191.14712,377.79939 a 5.06939,5.06939 0 1 0 6.07771,-3.80161 5.06764,5.06764 0 0 0 -6.07771,3.80161 z" /><path
       style="fill:#2196f3"
       id="path35"
       d="m 320.41207,382.02914 a 5.06943,5.06943 0 1 0 3.802,6.07858 5.06849,5.06849 0 0 0 -3.802,-6.07858 z" /><path
       style="fill:#2196f3"
       id="path37"
       d="m 325.75906,329.14787 a 6.50989,6.50989 0 0 0 -5.64856,1.37429 l -7.48695,-4.28875 a 11.60676,11.60676 0 0 0 0.37348,-1.10072 11.75825,11.75825 0 0 0 -8.81615,-14.097 11.63077,11.63077 0 0 0 -5.74483,0.17152 l -3.50164,-7.01445 a 4.82711,4.82711 0 1 0 -8.74192,-2.83689 l -9.25227,4.81722 a 14.28016,14.28016 0 1 0 -20.86486,19.42054 l -8.02861,11.63869 a 27.30287,27.30287 0 0 0 -15.24182,-3.59951 l -1.21554,-10.19886 a 10.69415,10.69415 0 1 0 -14.0286,-8.4276 L 202.051,321.001 a 7.13777,7.13777 0 1 0 1.62845,4.22047 l 15.519,-5.99854 a 9.89181,9.89181 0 0 0 7.89638,4.72486 l 1.23062,10.32268 a 27.44579,27.44579 0 0 0 -12.67271,46.91665 l -9.584,12.18731 a 12.1,12.1 0 0 0 -13.79779,1.52581 l -9.78116,-7.97409 a 7.16084,7.16084 0 0 0 0.3468,-1.02329 7.39078,7.39078 0 0 0 -3.81133,-8.214 l 1.77112,-10.4217 a 13.98987,13.98987 0 1 0 -4.45157,-0.80582 l -1.77808,10.46012 a 7.39859,7.39859 0 1 0 5.08254,13.52058 l 9.77421,7.96945 a 12.28408,12.28408 0 0 0 8.08312,18.09234 c 0.21921,0.0505 0.435,0.0444 0.65184,0.0825 l 0.15658,16.12289 a 11.73306,11.73306 0 0 0 -5.64971,20.12631 l -6.45351,13.29049 a 9.02683,9.02683 0 1 0 4.6244,1.89958 l 5.666,-12.8003 a 11.63284,11.63284 0 0 0 1.53334,0.52 11.80258,11.80258 0 0 0 5.30176,-23.00206 c -0.167,-0.0386 -0.334,-0.0325 -0.50106,-0.0634 l -0.15426,-16.10491 a 12.40907,12.40907 0 0 0 6.95224,-20.41817 l 9.57587,-12.17846 a 27.35233,27.35233 0 0 0 31.61452,-0.92543 l 6.44422,6.57181 a 9.29087,9.29087 0 0 0 -1.03576,8.01976 l -13.87086,8.07674 a 10.01519,10.01519 0 1 0 2.23623,3.89512 l 13.87434,-8.13284 a 9.70162,9.70162 0 0 0 16.4678,-4.5419 9.80327,9.80327 0 0 0 0.23893,-2.07414 l 8.85443,-2.019 a 9.05756,9.05756 0 1 0 -1.0462,-4.39792 l -8.84747,2.017 a 9.62866,9.62866 0 0 0 -13.66092,-4.02692 l -6.27721,-6.40131 a 27.32106,27.32106 0 0 0 6.41523,-27.00781 l 11.31335,-4.50855 a 6.87661,6.87661 0 0 0 10.17668,0.32809 l 6.83742,3.25314 c -0.16934,0.52035 -0.32592,1.04881 -0.45119,1.59279 a 18.10022,18.10022 0 1 0 2.40209,-5.67277 l -6.8583,-3.26285 a 6.92028,6.92028 0 1 0 -13.77227,-0.44394 l -11.30291,4.50478 a 27.58841,27.58841 0 0 0 -7.20742,-9.003 l 8.02165,-11.62782 A 14.31278,14.31278 0 0 0 279.2808,310.0522 l 9.00406,-4.68876 a 4.73674,4.73674 0 0 0 2.60274,0.85293 l 3.50164,7.01213 a 11.70932,11.70932 0 1 0 15.99342,16.93218 l 7.48463,4.28688 a 6.52632,6.52632 0 1 0 7.89174,-5.29958 z" /></g></svg>